<?xml version="1.0" standalone="no"?>
<!DOCTYPE svg PUBLIC "-//W3C//DTD SVG 20010904//EN"
 "http://www.w3.org/TR/2001/REC-SVG-20010904/DTD/svg10.dtd">
<svg version="1.0" xmlns="http://www.w3.org/2000/svg"
 width="640.000000pt" height="640.000000pt" viewBox="0 0 640.000000 640.000000"
 preserveAspectRatio="xMidYMid meet">
<metadata>
Created by potrace 1.11, written by Peter Selinger 2001-2013
</metadata>
<g transform="translate(0.000000,640.000000) scale(0.100000,-0.100000)"
fill="#000000" stroke="none">
<path d="M0 6386 c0 -8 9 -18 20 -21 17 -5 18 -10 9 -27 -10 -18 -8 -19 11
-13 12 4 28 1 38 -6 16 -12 16 -12 0 5 -12 14 -14 23 -6 36 10 15 17 16 67 5
76 -17 107 -30 93 -39 -7 -4 -12 -11 -12 -17 0 -13 27 -11 34 4 5 9 7 9 12 0
3 -7 14 -23 25 -35 19 -23 19 -23 4 15 l-15 37 55 -4 c30 -3 55 0 55 5 0 15
13 10 43 -15 24 -21 27 -28 17 -45 -6 -12 -20 -21 -31 -21 -15 0 -19 -5 -15
-16 3 -8 2 -12 -4 -9 -6 4 -17 -1 -26 -9 -8 -9 -27 -16 -40 -16 -21 0 -24 3
-19 23 5 16 4 18 -4 8 -8 -12 -13 -9 -28 17 -19 34 -43 43 -43 15 0 -9 11 -31
25 -49 27 -36 30 -44 15 -44 -5 0 -10 7 -10 15 0 8 -4 15 -10 15 -17 0 -11
-18 10 -33 23 -16 27 -54 22 -195 -2 -71 -3 -73 -34 -90 -37 -20 -131 -112
-136 -133 -2 -8 -10 -21 -18 -30 -8 -8 -14 -21 -14 -27 0 -6 -5 -14 -12 -18
-7 -5 -9 -2 -5 8 3 10 0 15 -11 14 -10 0 -16 5 -14 13 3 13 -24 40 -40 41 -5
0 -8 -299 -8 -665 l0 -665 45 0 c25 0 45 5 45 10 0 6 7 10 15 10 8 0 15 6 15
13 0 8 11 19 25 25 14 6 25 16 25 22 0 6 -5 8 -10 5 -13 -8 -73 52 -65 65 3 5
25 9 48 9 23 -1 35 -3 26 -6 -11 -3 -15 -11 -12 -24 7 -25 18 -24 37 3 13 18
20 20 45 12 24 -7 28 -12 21 -24 -9 -13 -11 -13 -21 0 -8 12 -9 10 -4 -7 7
-26 -12 -31 -35 -10 -12 10 -12 9 -1 -6 12 -15 11 -20 -5 -32 -10 -8 -22 -15
-27 -15 -4 0 -26 -19 -48 -42 -31 -33 -38 -44 -25 -46 8 -2 26 8 39 22 14 14
28 26 33 26 5 0 17 9 27 20 10 12 23 18 29 14 7 -4 2 -13 -13 -25 -19 -14 -21
-20 -12 -30 10 -10 16 -9 28 7 8 10 15 25 15 32 0 6 7 12 15 12 18 0 20 16 3
24 -9 3 -7 9 7 20 11 8 26 20 33 26 9 9 30 7 80 -5 37 -9 72 -21 78 -26 6 -5
20 -6 29 -2 13 4 16 3 11 -6 -6 -9 -2 -12 10 -10 33 4 93 -12 115 -32 16 -14
31 -17 58 -13 27 4 41 2 50 -10 8 -9 39 -18 82 -22 38 -4 69 -11 69 -15 0 -5
16 -9 35 -9 20 0 48 -6 63 -13 15 -8 56 -20 92 -27 36 -8 71 -20 78 -27 7 -7
21 -13 30 -13 10 0 25 -8 34 -17 27 -29 46 -43 60 -43 7 0 45 -20 83 -44 71
-45 236 -132 245 -130 3 1 24 4 47 8 l42 6 17 -57 c9 -32 22 -66 28 -75 13
-22 64 -24 91 -4 18 13 18 18 7 48 -18 51 -15 63 23 92 33 26 36 26 99 15 49
-8 63 -14 59 -25 -3 -8 0 -14 6 -14 6 0 11 6 12 13 0 6 7 -8 14 -33 8 -25 19
-54 25 -65 5 -11 19 -47 30 -79 18 -53 19 -62 5 -82 -15 -23 -68 -54 -92 -54
-7 0 -13 -4 -13 -10 0 -5 -12 -10 -27 -10 -41 0 -115 25 -106 34 4 5 2 7 -6 4
-7 -2 -27 9 -43 24 -17 15 -41 28 -54 28 -31 0 -30 -8 2 -21 61 -23 9 -17
-102 12 -65 17 -129 33 -142 36 -12 3 -32 16 -45 29 -23 25 -53 31 -59 13 -4
-11 -98 10 -98 22 0 4 -24 19 -52 34 l-53 27 25 -27 25 -27 -25 7 c-39 13
-161 45 -205 55 -22 5 -92 25 -155 44 -63 20 -125 36 -137 36 -15 0 -23 6 -23
17 0 12 -3 14 -11 6 -11 -11 -49 -6 -49 6 0 4 12 12 28 18 l27 10 -37 17 c-48
21 -55 20 -34 -3 32 -35 -20 -51 -61 -18 -7 5 -31 10 -54 11 -22 1 -44 8 -49
15 -4 8 -13 10 -19 7 -6 -4 -17 -4 -23 0 -7 5 -19 9 -28 10 -45 5 -101 24
-116 39 -11 11 -26 15 -44 11 -15 -2 -47 1 -71 9 -24 7 -38 14 -30 14 11 1 11
4 0 17 -12 14 -14 14 -26 -2 -12 -16 -13 -15 -13 12 0 31 -7 35 -88 59 l-22 6
0 -651 0 -650 25 -12 c28 -12 48 -2 25 12 -10 7 -11 10 -2 10 7 0 12 15 12 40
l0 40 40 0 40 0 0 40 0 40 93 1 c50 1 126 2 167 3 l75 1 3 38 3 37 80 0 79 0
0 39 c0 22 3 41 7 43 5 2 5 21 2 43 l-6 40 -2 -42 -1 -43 -40 0 -40 0 0 50 0
50 -80 0 c-64 0 -80 3 -80 15 0 11 -11 15 -40 15 -29 0 -40 4 -40 15 0 10 10
15 28 16 15 0 21 3 15 6 -7 2 -13 20 -13 39 0 30 -3 34 -25 34 -22 0 -25 4
-25 40 0 29 -4 40 -15 40 -11 0 -15 11 -15 40 0 29 -4 40 -15 40 -11 0 -15 11
-15 36 0 30 -8 45 -45 80 -25 24 -52 44 -61 44 -13 0 -15 8 -12 40 2 22 0 40
-4 40 -14 0 -9 37 7 50 21 17 19 30 -5 30 -11 0 -20 -7 -20 -15 0 -17 -27 -20
-49 -6 -12 8 -11 13 10 30 24 20 99 30 99 12 0 -5 18 -11 40 -15 26 -4 40 -11
40 -21 0 -11 11 -15 39 -15 22 0 43 -4 46 -10 3 -5 21 -10 40 -10 19 0 46 -5
62 -11 15 -6 50 -12 76 -13 27 -1 51 -7 55 -13 4 -5 41 -13 82 -15 41 -3 76
-11 78 -17 2 -6 11 -11 20 -11 10 0 30 -7 46 -15 18 -9 56 -15 103 -15 65 0
74 -2 71 -17 -3 -20 16 -22 65 -9 18 4 26 3 23 -3 -4 -5 4 -12 16 -16 54 -15
79 -28 68 -35 -7 -4 10 -10 36 -14 106 -15 114 -18 114 -37 0 -14 8 -19 28
-20 59 -2 171 -15 177 -20 3 -3 -157 -180 -192 -212 -80 -74 -273 -269 -273
-277 0 -5 -4 -10 -9 -10 -4 0 -38 -29 -73 -65 -50 -50 -72 -65 -94 -65 -21 0
-25 -3 -15 -9 11 -7 11 -12 -2 -31 -32 -45 -267 -280 -281 -280 -20 0 -66 21
-66 30 0 4 -17 12 -37 18 -42 11 -137 25 -113 16 8 -3 29 -12 47 -20 17 -8 38
-14 46 -14 9 0 18 -4 22 -9 3 -5 18 -12 34 -16 16 -3 35 -13 42 -21 6 -8 17
-14 23 -14 7 0 84 70 171 155 88 85 167 155 176 155 10 0 22 13 28 31 6 18 40
60 76 95 36 35 65 65 65 67 0 2 50 55 111 118 61 63 114 117 118 122 3 4 39
38 79 75 39 38 72 74 72 80 0 11 13 16 33 13 4 0 6 5 5 11 -2 7 3 12 10 10 8
-1 11 2 8 7 -4 5 -2 12 4 16 5 3 10 1 10 -4 0 -6 13 -11 29 -11 53 0 161 -30
181 -50 11 -11 32 -20 46 -20 17 0 28 -6 31 -20 3 -11 14 -20 24 -20 15 0 19
-7 19 -37 0 -46 22 -143 32 -143 10 0 11 -64 1 -73 -3 -4 -12 1 -19 10 -10 15
-11 14 -7 -12 3 -17 9 -34 13 -40 15 -21 38 -112 45 -175 4 -36 13 -78 21 -95
7 -16 14 -46 16 -65 2 -19 7 -34 12 -32 6 2 19 -23 30 -55 26 -72 117 -233
132 -233 7 0 18 10 27 23 8 12 51 59 95 104 63 66 81 90 86 121 12 77 90 182
135 182 18 0 74 62 106 118 11 17 22 32 25 32 6 0 29 45 47 90 17 42 198 246
229 258 86 33 282 42 484 22 57 -5 88 -5 95 2 7 8 6 9 -2 4 -9 -5 -13 0 -13
15 0 27 20 13 24 -17 2 -14 12 -19 32 -19 16 -1 46 -4 66 -9 31 -7 45 -4 74
13 26 16 40 19 47 12 8 -8 7 -11 -1 -11 -27 0 -10 -28 21 -33 39 -6 42 -4 29
19 -14 26 6 64 33 64 13 0 40 -7 61 -17 22 -9 58 -17 82 -18 24 -2 49 -8 55
-14 6 -6 19 -11 29 -11 13 0 18 -8 18 -25 0 -17 6 -25 18 -25 9 0 26 -7 36
-15 29 -22 43 -18 58 13 7 15 20 27 28 27 8 0 20 5 25 12 15 18 94 36 152 34
48 -1 53 1 59 23 3 14 1 32 -4 42 -10 19 -5 54 9 54 5 0 9 -7 9 -15 0 -8 7
-15 15 -15 8 0 15 -4 15 -10 0 -5 -7 -10 -15 -10 -8 0 -15 -5 -15 -11 0 -7 11
-9 31 -5 33 6 64 -6 92 -37 9 -11 20 -17 24 -14 3 4 -6 17 -20 30 -15 12 -27
28 -27 34 0 30 120 18 159 -16 24 -21 27 -41 7 -41 -8 0 -18 -5 -22 -11 -4 -8
1 -9 16 -4 23 7 23 6 17 -46 -4 -30 -7 -63 -7 -75 0 -21 -6 -22 -82 -10 -16 2
-28 1 -28 -4 0 -10 26 -20 55 -20 13 0 27 -5 30 -10 4 -6 10 -8 15 -5 4 3 11
-14 15 -37 6 -43 36 -139 45 -148 3 -3 16 -27 30 -55 13 -27 28 -52 32 -55 4
-3 1 -17 -7 -30 -8 -14 -18 -33 -21 -42 -3 -10 -10 -18 -15 -18 -5 0 -9 -13
-9 -30 0 -28 -2 -30 -40 -30 -22 0 -40 -4 -40 -10 0 -5 6 -10 14 -10 9 0 15
-14 18 -40 2 -22 0 -40 -4 -40 -5 0 -8 -8 -8 -18 0 -10 -4 -22 -9 -27 -6 -6
-12 -26 -16 -45 -12 -74 -18 -95 -30 -110 -7 -8 -15 -37 -19 -63 -3 -26 -17
-72 -31 -101 -14 -29 -25 -58 -25 -63 0 -6 -7 -16 -15 -23 -9 -8 -15 -29 -15
-59 1 -45 1 -45 15 -21 8 14 14 33 15 42 0 11 5 15 15 12 10 -4 15 0 15 12 1
18 2 18 16 -1 22 -29 13 -109 -15 -139 -22 -23 -25 -63 -5 -59 5 1 10 -10 11
-24 0 -14 7 -29 15 -34 9 -6 7 -9 -8 -9 -26 0 -74 -43 -74 -66 0 -12 -6 -15
-25 -10 -24 6 -25 4 -19 -21 l6 -28 -21 25 c-24 30 -26 49 -6 76 8 10 15 33
15 50 0 17 7 37 15 44 11 9 12 17 4 32 -10 19 -12 19 -29 3 -11 -10 -22 -37
-26 -61 -3 -24 -9 -43 -13 -42 -19 2 -32 -4 -55 -26 -15 -13 -26 -27 -26 -30
0 -4 -19 -25 -42 -47 -24 -22 -57 -53 -74 -70 -32 -31 -124 -79 -150 -79 -8 0
-28 -7 -44 -15 -29 -15 -30 -17 -30 -95 0 -86 12 -126 42 -135 10 -4 18 -10
18 -15 0 -4 7 -11 16 -14 12 -4 14 -1 9 13 -12 39 67 39 114 0 21 -17 23 -22
10 -31 -11 -8 -11 -9 4 -4 12 4 20 0 23 -12 3 -9 10 -25 16 -36 5 -10 11 -37
14 -60 2 -22 20 -81 39 -130 19 -49 35 -105 35 -123 0 -27 5 -35 27 -44 14 -5
33 -9 42 -8 19 2 42 -5 96 -32 22 -10 45 -19 50 -19 9 0 53 -58 64 -84 2 -5
16 -22 30 -38 36 -41 38 -51 29 -125 -4 -36 -9 -88 -11 -116 -3 -28 -10 -53
-16 -55 -6 -2 -11 -9 -11 -17 0 -7 -7 -18 -15 -25 -8 -7 -15 -20 -15 -30 0 -9
-9 -25 -19 -34 -10 -10 -22 -32 -25 -51 -4 -18 -14 -39 -22 -46 -9 -7 -20 -22
-24 -34 -4 -11 -25 -26 -46 -34 -22 -7 -59 -28 -84 -46 -25 -17 -53 -30 -62
-28 -9 3 -21 -4 -27 -15 -6 -11 -26 -22 -46 -26 -19 -3 -50 -9 -69 -12 -41 -7
-159 29 -187 57 -11 11 -21 19 -24 19 -19 0 -175 181 -175 202 0 10 -4 18 -10
18 -5 0 -10 7 -10 16 0 8 -13 29 -30 47 -20 22 -30 42 -30 64 0 30 -2 31 -32
26 -18 -3 -40 -11 -49 -19 -9 -8 -19 -11 -22 -7 -4 3 -16 -3 -27 -15 -12 -12
-27 -22 -35 -22 -8 0 -15 -4 -15 -9 0 -6 -21 -13 -47 -16 -56 -8 -113 -26
-113 -36 0 -4 7 -10 16 -13 14 -5 15 -15 10 -53 -8 -58 -27 -103 -43 -103 -7
0 -13 -8 -13 -17 0 -12 -18 -26 -53 -40 -77 -33 -101 -37 -116 -19 -8 9 -23
16 -35 16 -12 0 -26 4 -32 10 -14 14 -35 -23 -23 -41 7 -11 9 -11 9 4 0 9 5
17 10 17 12 0 13 -54 1 -95 -4 -17 -5 -39 -1 -50 9 -26 -6 -70 -41 -119 -16
-22 -29 -46 -29 -53 0 -7 -4 -13 -10 -13 -5 0 -9 -4 -7 -8 1 -4 -14 -22 -33
-40 l-35 -31 148 -1 c108 0 147 3 147 12 0 9 3 9 12 0 9 -9 375 -12 1585 -12
l1573 0 0 2096 c0 1838 -2 2095 -15 2090 -17 -6 -147 88 -134 98 2 1 37 15 77
30 89 34 94 54 27 104 -57 41 -57 58 -2 69 l42 9 3 530 2 531 -23 12 c-30 16
-52 50 -40 62 6 6 20 1 36 -11 l26 -20 -1 38 c0 36 -2 38 -32 38 -33 0 -64 25
-106 84 l-23 33 24 17 c13 10 49 31 81 46 46 22 58 32 58 51 0 13 -3 23 -7 23
-5 1 -34 25 -66 54 l-58 54 28 19 c15 10 45 27 66 37 20 11 37 23 37 28 0 12
-5 10 -42 -10 -18 -10 -48 -24 -67 -30 l-35 -12 25 26 c13 14 34 30 46 34 12
5 27 25 34 45 7 19 18 34 24 32 6 -3 11 31 13 94 l2 99 -200 0 c-176 0 -203
-2 -230 -18 -16 -10 -27 -22 -24 -25 4 -3 -1 -22 -10 -41 -9 -19 -16 -38 -16
-43 0 -4 -9 -19 -20 -33 -13 -17 -20 -20 -20 -10 0 8 -3 32 -6 53 -5 34 -4 37
19 37 15 0 26 7 29 18 4 15 0 17 -21 14 -21 -3 -30 2 -39 22 -11 25 -15 26
-89 26 -76 0 -79 -1 -90 -27 -7 -16 -23 -44 -35 -63 -12 -19 -27 -51 -33 -70
-6 -19 -19 -39 -30 -45 -11 -6 -36 -21 -55 -33 -57 -36 -112 -23 -75 18 15 16
15 23 1 76 -12 45 -13 60 -3 67 9 7 9 10 0 14 -7 2 -13 13 -13 23 0 37 -20 40
-241 38 l-214 -3 2 -25 c5 -63 -26 -93 -57 -55 -7 8 -18 15 -24 15 -6 -1 0
-10 14 -21 24 -21 24 -21 5 -36 -11 -8 -38 -24 -59 -35 -22 -11 -46 -27 -54
-34 -7 -8 -22 -14 -32 -14 -10 0 -20 -3 -22 -7 -1 -5 -17 -18 -35 -30 -41 -29
-56 -11 -17 20 16 12 38 33 49 46 11 13 45 49 75 80 30 31 64 66 74 79 l19 22
-851 0 -852 0 0 -31 c0 -20 -4 -29 -12 -26 -7 2 -13 16 -13 30 1 27 0 27 -66
27 -56 0 -68 -3 -72 -17 -4 -16 -5 -16 -6 -1 -1 15 -14 17 -100 17 -95 0 -100
-1 -104 -22 l-4 -22 -8 23 -7 22 -517 0 c-505 0 -516 0 -529 -20 -15 -25 -32
-26 -32 -1 0 18 -10 19 -209 20 -193 1 -210 0 -214 -16 -4 -17 -5 -17 -6 0 -1
16 -32 17 -493 17 -490 0 -491 0 -473 -20 10 -11 13 -20 7 -20 -6 0 -16 9 -22
20 -10 19 -21 20 -163 19 -108 0 -145 -3 -128 -10 19 -8 22 -12 12 -22 -10 -9
-16 -7 -31 11 -21 26 -30 28 -30 8z m1873 -3 c8 -7 -11 -33 -24 -33 -5 0 -9 9
-9 20 0 19 20 27 33 13z m924 -25 c-3 -7 -5 -2 -5 12 0 14 2 19 5 13 2 -7 2
-19 0 -25z m373 19 c0 -1 -9 -10 -20 -20 -19 -16 -20 -16 -20 3 0 13 7 20 20
20 11 0 20 -1 20 -3z m-1206 -16 c3 -4 -3 -16 -13 -25 -17 -15 -19 -16 -25 -1
-3 9 -6 21 -6 26 0 11 37 12 44 0z m106 -9 c0 -4 -9 -13 -20 -19 -20 -13 -37
-2 -25 17 7 12 45 14 45 2z m183 -9 c3 -5 -1 -14 -9 -21 -12 -11 -14 -9 -14 8
0 20 14 27 23 13z m1077 -3 c0 -5 -4 -10 -10 -10 -5 0 -10 5 -10 10 0 6 5 10
10 10 6 0 10 -4 10 -10z m-2305 -24 c0 -22 -14 -29 -34 -17 -19 12 -6 43 16
39 10 -2 18 -12 18 -22z m1125 20 c0 -3 -4 -8 -10 -11 -5 -3 -10 -1 -10 4 0 6
5 11 10 11 6 0 10 -2 10 -4z m1270 -10 c0 -8 -5 -18 -11 -22 -14 -8 -33 11
-25 25 10 16 36 13 36 -3z m-460 -21 c0 -8 -4 -15 -10 -15 -5 0 -10 7 -10 15
0 8 5 15 10 15 6 0 10 -7 10 -15z m548 4 c-2 -6 -8 -10 -13 -10 -5 0 -11 4
-13 10 -2 6 4 11 13 11 9 0 15 -5 13 -11z m98 -10 c10 -17 -13 -36 -27 -22
-12 12 -4 33 11 33 5 0 12 -5 16 -11z m-2196 -9 c0 -5 -4 -10 -10 -10 -5 0
-10 5 -10 10 0 6 5 10 10 10 6 0 10 -4 10 -10z m2300 0 c0 -12 -28 -25 -36
-17 -9 9 6 27 22 27 8 0 14 -5 14 -10z m907 -13 c14 -30 -18 -183 -37 -179 -7
2 -10 -3 -7 -11 3 -8 -19 -29 -57 -55 -69 -46 -76 -49 -76 -27 0 26 81 107
102 102 19 -5 25 7 9 17 -5 4 -1 24 10 46 10 21 19 60 19 85 0 50 19 62 37 22z
m-817 3 c0 -5 -4 -10 -10 -10 -5 0 -10 5 -10 10 0 6 5 10 10 10 6 0 10 -4 10
-10z m213 -10 c-19 -22 -29 -19 -20 5 4 8 13 15 22 15 13 0 12 -3 -2 -20z
m-2515 -1 c-2 -6 -8 -10 -13 -10 -5 0 -11 4 -13 10 -2 6 4 11 13 11 9 0 15 -5
13 -11z m1439 -21 c-3 -7 -5 -2 -5 12 0 14 2 19 5 13 2 -7 2 -19 0 -25z m270
10 c-3 -8 -6 -5 -6 6 -1 11 2 17 5 13 3 -3 4 -12 1 -19z m680 0 c-3 -8 -6 -5
-6 6 -1 11 2 17 5 13 3 -3 4 -12 1 -19z m1114 -35 c12 -24 30 -50 40 -56 11
-7 19 -20 19 -30 0 -18 5 -21 50 -31 36 -8 98 -66 106 -98 5 -23 2 -29 -17
-37 -13 -5 -33 -18 -43 -30 -11 -12 -31 -21 -46 -21 -16 0 -30 -7 -34 -15 -4
-11 1 -15 19 -15 14 0 25 5 25 12 0 6 3 9 6 5 3 -3 -16 -44 -42 -90 -50 -91
-52 -92 -106 -55 -38 26 -36 3 2 -30 33 -29 39 -52 14 -52 -8 0 -13 -4 -10 -8
6 -11 -57 -82 -73 -82 -9 0 -9 5 -1 21 14 25 5 73 -23 118 -20 33 -20 34 -2
47 10 8 26 14 35 14 9 0 25 9 35 20 9 10 32 24 50 30 18 6 36 18 39 26 3 9
-19 1 -59 -21 -36 -19 -69 -34 -73 -33 -4 1 -19 -6 -35 -16 -24 -17 -29 -17
-45 -4 -23 20 -62 52 -91 76 -32 25 -22 52 18 52 16 0 32 -6 35 -12 3 -7 3 -3
0 9 -4 17 5 28 41 53 61 42 50 52 -11 11 -63 -41 -92 -41 -85 2 1 4 -4 27 -10
52 -12 48 -19 49 -71 13 -16 -11 -28 -15 -28 -9 0 6 14 18 30 26 18 9 28 21
24 27 -9 14 51 66 85 75 14 3 28 9 31 13 14 18 155 97 166 93 7 -3 23 -25 35
-50z m-3391 38 c0 -5 -7 -12 -16 -15 -22 -9 -24 -8 -24 9 0 8 9 15 20 15 11 0
20 -4 20 -9z m-1073 -11 c12 0 13 -3 4 -14 -12 -15 -55 -16 -68 -2 -10 10 19
27 35 21 8 -3 21 -5 29 -5z m2416 -31 c-11 -12 -27 -19 -34 -16 -10 4 -7 8 9
12 12 4 22 11 22 16 0 5 6 9 12 9 7 0 3 -9 -9 -21z m-1073 1 c0 -5 -4 -10 -10
-10 -5 0 -10 5 -10 10 0 6 5 10 10 10 6 0 10 -4 10 -10z m879 -45 c1 -17 -1
-17 -9 -5 -5 8 -9 26 -9 40 0 23 1 23 9 5 5 -11 9 -29 9 -40z m-402 -2 c-16
-16 -17 -16 -17 3 0 26 11 37 24 24 7 -7 5 -16 -7 -27z m983 3 c0 -11 -19 -15
-25 -6 -3 5 1 10 9 10 9 0 16 -2 16 -4z m-2880 -45 c0 -9 5 -22 11 -28 6 -6 8
-17 3 -24 -8 -13 -16 3 -35 64 -7 25 -6 27 6 17 8 -7 15 -20 15 -29z m2339
-55 c1 -37 0 -38 -17 -23 -21 19 -28 77 -10 88 16 10 26 -13 27 -65z m-2149
43 c0 -6 -4 -7 -10 -4 -5 3 -10 11 -10 16 0 6 5 7 10 4 6 -3 10 -11 10 -16z
m2410 -11 c0 -13 3 -33 6 -45 5 -17 2 -23 -9 -23 -15 0 -27 28 -27 68 0 13 6
22 15 22 9 0 15 -9 15 -22z m650 12 c0 -5 -4 -10 -10 -10 -5 0 -10 5 -10 10 0
6 5 10 10 10 6 0 10 -4 10 -10z m319 -3 c-9 -7 -18 -19 -22 -27 -3 -9 -6 -4
-6 13 -1 22 3 27 22 27 19 -1 20 -2 6 -13z m-109 -7 c0 -5 -7 -10 -15 -10 -8
0 -15 5 -15 10 0 6 7 10 15 10 8 0 15 -4 15 -10z m-3211 -60 c5 0 11 -7 14
-15 5 -12 2 -12 -18 -3 -25 11 -27 15 -27 43 0 35 4 38 13 8 5 -18 13 -33 18
-33z m1189 0 c17 -16 32 -36 32 -44 0 -15 -50 -56 -68 -56 -17 0 -70 53 -80
80 -14 39 -5 50 41 50 32 -1 50 -8 75 -30z m38 3 c-10 -10 -19 5 -10 18 6 11
8 11 12 0 2 -7 1 -15 -2 -18z m-1560 -44 c5 -30 3 -35 -15 -35 -16 0 -21 7
-21 27 0 67 26 72 36 8z m1744 29 c16 -12 33 -18 37 -13 5 4 2 10 -4 12 -7 3
-13 9 -13 15 0 11 99 1 113 -11 12 -11 -3 -40 -24 -46 -10 -3 -28 -1 -39 5
-12 7 -24 9 -27 6 -3 -3 3 -9 15 -13 16 -7 18 -11 9 -23 -31 -39 -112 -92 -92
-60 3 6 1 10 -5 10 -6 0 -10 -6 -8 -14 3 -11 -74 -86 -89 -86 -2 0 -1 19 2 43
3 23 8 51 9 61 4 26 20 31 36 11 16 -19 30 -19 30 -1 0 8 -12 17 -26 20 -24 6
-25 9 -19 49 4 23 9 45 12 50 9 14 54 7 83 -15z m-1608 -17 c19 -35 1 -32 -25
4 -13 18 -14 25 -5 25 7 0 21 -13 30 -29z m4081 2 c3 -15 1 -38 -4 -51 -5 -13
-9 -38 -9 -55 0 -58 -12 -59 -68 -10 -54 47 -64 69 -34 80 9 4 19 9 22 13 7 9
74 50 81 50 4 0 9 -12 12 -27z m1617 22 c0 -5 -75 -45 -85 -45 -16 0 -1 19 28
33 32 16 57 21 57 12z m-3770 -16 c0 -9 -49 -21 -59 -14 -5 2 -14 -2 -21 -10
-11 -14 -15 -14 -31 1 -11 10 -19 20 -19 23 0 3 29 6 65 6 36 0 65 -3 65 -6z
m114 2 c3 -5 -14 -25 -38 -45 -47 -38 -61 -33 -44 16 7 18 18 28 36 31 15 2
30 5 34 6 4 0 9 -3 12 -8z m3752 -58 c35 -32 64 -63 64 -69 0 -10 -130 -79
-134 -72 -1 2 -14 22 -29 45 -15 24 -27 46 -27 51 0 5 -9 17 -20 27 -15 13
-16 20 -7 29 10 9 73 43 85 45 2 1 32 -25 68 -56z m-3507 9 c0 -24 -1 -25 -9
-7 -12 28 -12 47 0 40 6 -3 10 -18 9 -33z m-489 -2 c8 0 10 -8 7 -22 -13 -53
-47 -161 -52 -166 -6 -7 -66 26 -77 42 -5 8 -8 7 -8 -1 0 -6 12 -20 27 -31
l26 -19 -39 -37 c-21 -20 -42 -36 -47 -36 -10 0 -117 91 -117 100 0 14 84 73
88 62 2 -7 8 -12 14 -12 6 0 8 7 4 15 -4 11 12 29 51 58 30 23 63 50 72 60 14
16 17 16 27 2 6 -8 17 -15 24 -15z m298 -7 c13 -33 32 -104 32 -118 0 -6 -13
-19 -30 -28 -16 -10 -36 -24 -44 -33 -13 -13 -17 -12 -32 11 -10 15 -18 41
-18 60 -1 18 -8 40 -16 50 -12 15 -10 20 26 50 48 42 68 43 82 8z m-2072 -26
c16 -9 19 -37 4 -37 -12 0 -30 34 -29 57 0 14 2 15 6 3 3 -8 12 -19 19 -23z
m1040 8 c2 -5 -5 -21 -15 -34 -17 -23 -20 -23 -35 -9 -21 21 -20 34 2 47 20
12 44 10 48 -4z m2564 5 c0 -5 -5 -10 -11 -10 -5 0 -7 5 -4 10 3 6 8 10 11 10
2 0 4 -4 4 -10z m-2302 -36 c-10 -10 -28 6 -28 24 0 15 1 15 17 -1 9 -9 14
-19 11 -23z m-1387 -66 c6 -12 6 -18 0 -18 -6 0 -15 8 -20 19 -6 10 -22 21
-35 25 -26 6 -42 38 -30 58 7 11 61 -42 85 -84z m4044 42 c33 -28 61 -54 63
-59 1 -4 -29 -26 -68 -49 l-70 -42 -40 26 c-22 15 -40 31 -40 37 0 6 11 25 25
43 14 18 25 36 25 41 0 12 30 53 38 53 5 0 35 -23 67 -50z m-2080 -20 c17 -19
47 -92 40 -98 -2 -3 -11 1 -20 8 -11 9 -15 10 -15 0 0 -6 10 -20 22 -30 23
-18 23 -18 3 -40 -35 -39 -53 -43 -85 -20 -32 22 -34 42 -15 113 6 22 10 25
21 16 11 -9 14 -7 14 9 0 12 5 24 10 27 16 10 12 28 -5 21 -18 -7 -18 -4 -2
31 l12 27 3 -24 c2 -14 10 -32 17 -40z m782 44 c-3 -3 -12 -4 -19 -1 -8 3 -5
6 6 6 11 1 17 -2 13 -5z m-1307 -43 c0 -9 -9 -34 -18 -56 l-18 -40 -13 49
c-10 42 -10 51 5 67 13 14 20 16 31 8 7 -6 13 -19 13 -28z m-290 -7 c14 -36
13 -39 -10 -19 -21 19 -27 45 -10 45 6 0 15 -12 20 -26z m-744 -4 c18 -4 42
-15 55 -24 l23 -16 -22 0 c-13 0 -21 -4 -18 -9 7 -11 -16 -59 -31 -66 -24 -8
-38 5 -61 57 -25 56 -23 85 6 73 9 -4 31 -11 48 -15z m-280 -5 c9 -8 31 -15
49 -15 26 0 35 -5 40 -21 8 -24 -12 -43 -30 -30 -5 5 -25 12 -43 16 -24 5 -32
11 -28 21 3 9 1 12 -4 9 -6 -3 -10 3 -10 14 0 25 6 26 26 6z m2334 -19 c0 -39
-26 -69 -36 -42 -7 18 14 76 27 76 5 0 9 -15 9 -34z m620 24 c0 -5 -11 -10
-25 -10 -14 0 -25 -5 -25 -11 0 -7 -8 -18 -17 -25 -17 -12 -17 -13 -1 -14 9 0
20 5 23 10 3 6 13 10 21 10 8 0 24 10 35 21 17 17 30 20 66 16 24 -2 46 -7 49
-10 3 -3 -6 -29 -19 -59 -14 -29 -28 -63 -31 -75 -4 -11 -13 -27 -21 -33 -8
-7 -15 -23 -15 -36 0 -12 -6 -29 -13 -36 -8 -7 -12 -19 -10 -25 5 -15 -28 -93
-39 -93 -4 0 -8 -7 -8 -15 0 -25 -23 -17 -57 20 -21 22 -30 41 -26 51 5 13 2
15 -14 10 -31 -10 -126 69 -149 122 -7 19 -22 36 -33 39 -14 4 -21 17 -26 53
-8 61 -1 74 36 66 16 -3 29 -1 29 4 0 6 45 10 110 10 67 0 110 4 110 10 0 6
11 10 25 10 14 0 25 -4 25 -10z m820 0 c0 -5 -5 -10 -11 -10 -5 0 -7 5 -4 10
3 6 8 10 11 10 2 0 4 -4 4 -10z m-2762 -47 c33 -33 41 -70 20 -91 -18 -18 -32
-15 -69 18 -19 16 -37 30 -40 30 -18 0 -16 33 2 54 27 31 47 28 87 -11z m3716
11 c24 -24 19 -67 -14 -112 -33 -46 -57 -62 -94 -62 -55 0 -42 105 19 159 40
34 66 39 89 15z m-1544 -35 c0 -5 -18 -19 -40 -31 -22 -13 -40 -26 -40 -30 0
-12 6 -10 42 12 18 11 38 20 43 20 6 0 19 -30 29 -67 11 -38 21 -74 24 -80 2
-8 -4 -13 -16 -13 -11 0 -22 -4 -24 -8 -6 -16 -107 -84 -117 -78 -5 3 -14 -1
-21 -9 -19 -23 -40 0 -40 45 0 66 61 176 76 137 3 -9 13 -18 22 -22 14 -5 14
-4 0 12 -27 31 -30 60 -12 100 10 21 23 41 28 45 11 7 46 -18 46 -33z m195 26
c80 -15 125 -32 125 -46 0 -10 -114 -79 -131 -79 -7 0 -28 14 -46 32 -18 17
-36 29 -39 25 -4 -3 10 -21 30 -40 37 -35 36 -45 -5 -60 -12 -4 -19 4 -28 32
-6 21 -11 49 -11 63 0 13 -5 29 -12 36 -9 9 -7 16 7 32 22 24 12 23 110 5z
m-1295 -55 c8 -46 9 -46 -57 -53 -36 -4 -42 -2 -47 16 -3 14 2 30 16 44 27 29
43 29 62 1 13 -18 16 -19 16 -6 0 9 -5 20 -10 23 -6 4 -8 11 -4 16 9 15 16 4
24 -41z m1910 30 c0 -11 -19 -38 -42 -59 -39 -38 -42 -39 -65 -24 -13 9 -21
18 -18 22 7 6 118 79 123 80 1 1 2 -8 2 -19z m-210 -29 l40 -29 -25 -16 c-32
-21 -30 -22 -61 20 -23 29 -25 37 -13 45 18 11 14 13 59 -20z m-2326 4 c8 -8
19 -15 25 -15 12 0 61 -47 61 -60 0 -5 -22 -23 -50 -41 -27 -18 -50 -36 -50
-40 0 -5 -25 -24 -56 -44 -31 -20 -65 -45 -77 -55 -32 -30 -47 -25 -112 34
-35 33 -38 38 -19 35 4 0 10 4 14 10 4 8 14 5 30 -9 14 -12 32 -19 42 -16 10
3 27 9 38 12 14 5 20 2 20 -10 0 -9 7 -16 15 -16 8 0 15 3 15 6 0 10 -28 34
-40 34 -14 0 9 39 41 71 10 10 19 32 19 49 0 30 32 70 56 70 7 0 19 -7 28 -15z
m-1336 -20 c17 -38 14 -43 -8 -15 -21 27 -25 40 -12 40 5 0 14 -11 20 -25z
m1091 -21 c26 -44 27 -63 2 -40 -15 13 -36 76 -25 76 1 0 11 -16 23 -36z m466
-21 c-11 -84 -14 -87 -60 -47 l-29 25 34 34 c50 49 63 46 55 -12z m1909 -16
c56 -65 57 -62 -31 -109 l-42 -22 -20 23 c-12 14 -24 21 -28 17 -4 -3 3 -13
15 -22 28 -19 28 -26 -1 -40 -12 -5 -41 -21 -63 -34 -39 -23 -43 -23 -67 -7
-17 11 -29 32 -37 68 -13 52 -13 53 16 76 16 12 39 23 51 23 12 0 23 4 25 9 5
15 110 82 121 78 6 -2 33 -29 61 -60z m-3389 13 c-3 -5 -17 -10 -31 -10 -13 0
-24 5 -24 10 0 6 14 10 31 10 17 0 28 -4 24 -10z m3698 -27 c42 -41 42 -42 23
-68 -13 -18 -16 -17 -70 23 -60 46 -66 55 -38 71 29 18 47 12 85 -26z m-2843
6 c0 -5 -4 -9 -10 -9 -5 0 -10 7 -10 16 0 8 5 12 10 9 6 -3 10 -10 10 -16z
m3021 5 c11 -14 10 -18 -6 -30 -28 -21 -35 -17 -35 16 0 33 19 40 41 14z m153
0 c4 -10 1 -14 -6 -12 -15 5 -23 28 -10 28 5 0 13 -7 16 -16z m-2324 -4 c0 -5
-5 -10 -11 -10 -5 0 -7 5 -4 10 3 6 8 10 11 10 2 0 4 -4 4 -10z m-868 -29 c7
-10 30 -30 51 -44 l38 -26 -27 -18 c-20 -13 -29 -14 -32 -5 -2 7 -9 18 -15 25
-14 14 -47 72 -47 81 0 13 20 5 32 -13z m570 2 c25 -23 23 -31 -14 -48 -18 -8
-41 -20 -50 -27 -14 -10 -21 -9 -38 7 l-22 20 38 32 c42 37 59 40 86 16z
m2146 -1 c2 -7 -2 -10 -12 -6 -9 3 -16 11 -16 16 0 13 23 5 28 -10z m391 -57
c18 -25 41 -50 52 -55 27 -15 24 -26 -12 -40 -26 -11 -35 -11 -60 4 -16 9 -29
13 -29 7 0 -5 8 -14 18 -20 16 -9 16 -11 -3 -25 -11 -8 -45 -27 -75 -42 -30
-15 -66 -33 -80 -41 -106 -59 -131 -67 -150 -55 -12 7 -20 8 -20 2 0 -5 5 -10
10 -10 26 0 4 -21 -58 -53 -66 -35 -69 -36 -91 -19 -50 37 -91 77 -91 88 0 7
27 28 60 48 l61 35 20 -20 c11 -11 23 -19 25 -16 2 2 -2 10 -11 17 -19 16 -19
30 -1 30 8 0 21 7 30 15 22 22 46 21 99 -4 60 -28 111 -37 129 -22 7 6 28 22
46 37 23 19 32 34 32 56 0 26 3 29 23 23 l22 -7 -22 21 c-39 38 -21 87 33 90
6 1 25 -19 43 -44z m-2989 10 c-12 -15 -30 -12 -30 6 0 5 10 9 21 9 18 0 19
-2 9 -15z m2564 -63 c25 -23 46 -46 46 -51 0 -11 -66 -51 -85 -51 -7 0 -36
-16 -65 -35 -79 -53 -90 -53 -153 -3 -31 23 -56 49 -56 56 -1 6 22 24 50 40
28 15 81 46 117 69 74 46 67 47 146 -25z m101 57 c10 -14 1 -21 -19 -13 -9 3
-13 10 -10 15 7 12 21 11 29 -2z m-2325 -16 c28 -24 25 -34 -15 -66 -33 -26
-37 -27 -57 -13 -12 9 -18 16 -13 16 6 0 3 5 -5 10 -13 9 -13 11 0 19 8 5 26
19 39 30 29 25 26 25 51 4z m1755 -49 c6 -35 -19 -124 -35 -124 -11 0 -84 60
-94 77 -6 11 -4 18 5 24 8 4 32 21 54 37 46 35 61 32 70 -14z m-2077 5 c9 -11
34 -30 54 -41 l37 -21 -39 -29 -40 -30 -29 24 c-16 13 -36 36 -46 51 -16 27
-16 29 2 47 24 25 39 24 61 -1z m3132 -13 c0 -8 -8 -21 -17 -28 -10 -7 -24
-25 -32 -40 -17 -33 -25 -34 -57 -9 -22 17 -22 19 -6 34 18 16 92 56 105 57 4
0 7 -6 7 -14z m-2876 -48 c6 -5 3 -15 -8 -25 -9 -10 -22 -26 -29 -36 -11 -16
-15 -15 -50 14 -48 40 -61 30 -15 -11 35 -31 35 -31 19 -66 -8 -18 -20 -34
-26 -34 -14 0 -105 70 -105 80 0 4 17 20 38 36 20 15 54 43 75 62 l39 34 26
-24 c15 -12 31 -26 36 -30z m3591 -42 c-3 -44 -11 -82 -16 -84 -5 -2 -9 -21
-9 -42 0 -37 -9 -46 -55 -54 -5 -1 -37 -10 -70 -20 l-59 -18 -18 22 c-14 17
-24 21 -44 16 -34 -9 -136 3 -128 15 3 5 -1 6 -9 3 -8 -3 -20 2 -27 11 -7 8
-18 15 -25 15 -38 0 -105 60 -105 94 0 9 73 43 109 51 19 4 57 18 85 31 53 25
130 32 142 13 7 -11 9 -11 89 18 32 12 69 17 99 15 l48 -4 -7 -82z m195 55 c5
-11 19 -23 30 -26 22 -7 28 -35 7 -35 -6 0 -24 -26 -39 -57 -15 -32 -37 -64
-49 -71 -11 -8 -18 -19 -15 -27 3 -8 2 -14 -2 -13 -4 1 -16 -3 -27 -9 -11 -6
-31 -13 -45 -14 -26 -4 -33 12 -19 42 5 9 16 52 25 95 22 109 38 134 86 134
27 0 40 -6 48 -19z m-2079 -37 l34 -36 -45 7 c-42 7 -80 21 -80 30 0 9 32 35
44 35 7 0 28 -16 47 -36z m752 -4 c3 -11 1 -20 -4 -20 -5 0 -9 2 -9 4 0 2 -3
11 -6 20 -3 9 -2 16 4 16 5 0 12 -9 15 -20z m305 -19 c17 -16 32 -31 32 -34 0
-7 -56 -72 -99 -114 -18 -18 -56 -44 -85 -57 -28 -12 -62 -28 -76 -34 -14 -6
-52 -27 -84 -45 l-60 -34 -45 31 c-25 17 -54 40 -64 51 -17 19 -18 21 -2 30
10 5 36 22 59 37 48 33 63 34 85 10 19 -22 85 -72 94 -72 4 0 7 5 7 10 0 6 -5
10 -11 10 -6 0 -27 16 -46 35 -19 19 -39 35 -44 35 -5 0 -9 4 -9 8 0 10 121
72 140 72 8 -1 37 -21 64 -45 27 -24 53 -42 59 -38 9 6 -27 40 -75 70 -16 10
-28 20 -28 23 0 11 125 79 145 80 6 0 25 -13 43 -29z m-784 -3 c12 -13 39 -37
59 -55 35 -31 36 -32 14 -39 -26 -8 -32 -7 -32 6 0 15 -26 30 -51 30 -15 0
-24 10 -31 34 -16 52 2 62 41 24z m2009 15 c-8 -3 -13 -22 -13 -47 0 -50 -16
-72 -36 -51 -20 19 -18 75 4 91 9 7 26 13 37 13 11 0 14 -3 8 -6z m27 -26 c0
-7 -4 -17 -9 -22 -5 -6 -11 -19 -14 -30 -3 -11 -5 -1 -6 23 -1 31 3 42 14 42
8 0 15 -6 15 -13z m-4213 -65 c17 -15 39 -32 50 -38 17 -11 17 -12 -1 -32 -10
-12 -23 -19 -27 -16 -5 3 -9 0 -9 -5 0 -27 -19 -6 -43 49 -15 33 -27 62 -27
65 0 13 28 2 57 -23z m2347 -67 c27 -25 53 -45 58 -45 17 0 7 -16 -20 -32 -28
-17 -29 -17 -46 13 -22 38 -63 79 -79 79 -7 0 -3 7 7 15 11 8 22 15 25 15 3 0
28 -21 55 -45z m1780 9 c9 -23 8 -24 -14 -24 -19 0 -27 20 -13 33 11 11 20 8
27 -9z m-1274 -80 c0 -13 -42 -74 -50 -74 -9 0 -30 32 -30 44 0 6 58 34 73 35
4 1 7 -2 7 -5z m-377 -33 c17 -16 45 -39 60 -52 l28 -24 -61 -33 c-33 -19 -67
-32 -74 -29 -11 4 -26 39 -52 117 -3 9 6 22 23 32 37 23 38 23 76 -11z m296
-32 l24 -20 -23 -50 c-32 -68 -41 -74 -82 -53 l-33 16 23 -21 c12 -12 22 -25
22 -29 0 -10 -106 -62 -126 -62 -9 0 -29 9 -45 21 -36 25 -38 12 -3 -16 l26
-21 -23 -16 c-13 -8 -34 -18 -46 -22 -18 -6 -22 -4 -17 8 3 9 0 18 -8 21 -10
4 -13 16 -10 35 3 18 0 30 -7 30 -6 0 -11 9 -11 20 0 20 1 20 26 3 27 -17 27
-17 15 5 -7 12 -10 26 -7 30 2 4 32 21 65 37 l61 29 30 -29 c17 -16 30 -23 30
-16 0 8 -10 22 -22 32 -25 22 -25 23 44 60 63 34 66 34 97 8z m797 -50 c18 -6
117 -9 220 -8 196 1 261 -6 230 -23 -16 -9 -16 -11 0 -22 26 -20 10 -33 -49
-41 -79 -10 -127 -26 -138 -47 -5 -10 -17 -18 -26 -18 -12 0 -14 -3 -6 -11 7
-7 8 -21 2 -42 -14 -48 -13 -49 49 -45 54 3 57 2 61 -22 1 -14 8 -29 15 -33 7
-5 0 -17 -24 -38 -22 -19 -31 -32 -24 -37 12 -8 48 -72 42 -77 -2 -1 -20 -5
-42 -9 l-38 -7 16 23 c23 32 20 39 -11 32 -23 -6 -25 -4 -20 15 4 16 1 21 -14
21 -10 0 -19 5 -19 11 0 8 -4 8 -12 2 -7 -5 -43 -9 -79 -9 -54 1 -65 -2 -62
-14 2 -8 -6 -19 -19 -25 -12 -6 -26 -24 -32 -42 -9 -32 -36 -54 -36 -29 0 8
-20 35 -45 60 -24 25 -41 46 -37 46 22 1 -28 20 -52 20 -21 0 -27 -4 -22 -15
4 -12 0 -14 -18 -9 -36 9 -128 -35 -120 -58 3 -10 0 -18 -6 -18 -8 0 -11 -15
-8 -45 2 -29 -1 -46 -9 -50 -7 -2 -13 -10 -13 -16 0 -8 4 -8 15 1 8 6 19 9 25
5 17 -10 11 -25 -10 -25 -11 0 -20 -4 -20 -10 0 -13 26 -13 50 0 12 6 17 16
13 26 -5 13 -1 15 18 9 37 -11 46 -25 27 -39 -10 -7 -15 -16 -11 -19 3 -4 1
-7 -4 -7 -6 0 -13 4 -15 10 -1 5 -13 7 -25 4 -19 -5 -23 -13 -23 -45 0 -28 4
-39 15 -39 8 0 15 -4 15 -8 0 -12 -35 -43 -52 -46 -7 -1 -19 -5 -27 -10 -10
-7 -10 -10 -1 -16 9 -6 3 -13 -18 -24 -44 -23 -83 -21 -89 4 -5 20 -27 27 -36
13 -2 -5 -2 -2 -1 4 2 7 -7 24 -20 38 -16 17 -24 37 -23 57 2 31 27 54 27 24
0 -9 3 -16 8 -16 13 0 34 17 31 26 -1 5 8 14 20 20 11 6 19 13 16 16 -3 2 11
12 30 21 34 16 35 16 36 -6 1 -15 3 -17 6 -5 5 19 -23 89 -34 86 -4 -2 -23 3
-40 11 -31 12 -33 17 -33 61 0 27 6 54 13 62 8 7 12 20 9 28 -3 8 -1 12 3 8 5
-5 23 3 41 17 18 14 37 25 43 25 15 0 88 39 100 53 5 7 8 22 6 32 -2 11 -4 23
-4 26 -2 12 -96 17 -108 7 -21 -17 -15 6 12 46 14 20 25 41 25 46 0 5 11 17
25 28 14 11 25 24 25 30 0 10 33 34 80 59 27 14 148 9 206 -8z m565 -28 c-7
-5 -11 -15 -9 -22 8 -25 -19 -42 -50 -31 -26 10 -26 10 -3 11 20 1 22 5 17 26
-6 23 -4 25 26 25 23 0 29 -3 19 -9z m-24 -107 c-3 -3 -22 -2 -43 2 l-39 8 40
11 c33 10 41 10 43 -2 2 -8 2 -17 -1 -19z m-1419 -34 c-5 -17 -14 -33 -19 -36
-5 -3 -7 -10 -4 -15 12 -18 -31 -9 -48 11 -16 19 -15 20 6 32 12 7 31 18 42
24 31 19 35 16 23 -16z m1400 3 c-5 -25 -28 -28 -28 -4 0 12 6 21 16 21 9 0
14 -7 12 -17z m-5788 -55 c0 -4 -7 -8 -15 -8 -10 0 -15 10 -15 28 1 26 1 26
15 8 8 -11 15 -23 15 -28z m4290 15 c0 -5 13 -17 29 -27 34 -23 35 -53 5 -91
-29 -37 -64 -41 -96 -10 -20 18 -28 21 -28 11 0 -8 10 -22 23 -31 19 -13 20
-17 7 -25 -8 -5 -18 -10 -21 -10 -12 0 -29 53 -24 71 4 11 2 19 -4 19 -6 0
-11 11 -11 25 0 15 6 25 14 25 8 0 16 3 18 8 4 10 61 41 76 42 6 0 12 -3 12
-7z m1385 -73 c8 0 15 -4 15 -9 0 -5 10 -12 23 -14 12 -2 1 -5 -25 -6 -51 -1
-63 8 -52 41 6 19 7 19 16 5 5 -10 16 -17 23 -17z m-2035 -30 c0 -12 -57 -14
-63 -2 -3 4 10 8 29 9 19 2 34 -2 34 -7z m-3570 -44 c0 -3 -4 -8 -10 -11 -5
-3 -10 -1 -10 4 0 6 5 11 10 11 6 0 10 -2 10 -4z m4247 -22 c-3 -3 -12 -4 -19
-1 -8 3 -5 6 6 6 11 1 17 -2 13 -5z m-4192 -20 c9 -9 13 -19 10 -22 -8 -8 -55
20 -49 30 8 12 21 10 39 -8z m242 10 c-3 -3 -12 -4 -19 -1 -8 3 -5 6 6 6 11 1
17 -2 13 -5z m3369 -5 c9 -16 -18 -30 -33 -17 -7 6 -10 14 -7 19 7 13 31 11
40 -2z m560 -16 c17 -27 -12 -123 -37 -123 -12 0 -19 7 -19 20 0 11 -7 23 -15
26 -8 4 -15 14 -15 24 0 11 -5 22 -11 26 -14 8 39 44 66 44 11 0 25 -8 31 -17z
m1374 -69 c0 -8 -4 -14 -10 -14 -5 0 -10 9 -10 21 0 11 5 17 10 14 6 -3 10
-13 10 -21z m-5410 -1 c-8 -3 -18 -11 -22 -17 -5 -7 -8 -4 -8 7 0 11 7 17 23
16 15 0 17 -2 7 -6z m-190 -18 c0 -12 -19 -12 -23 0 -4 9 -1 12 9 8 7 -3 14
-7 14 -8z m60 5 c0 -5 -12 -10 -26 -10 -14 0 -23 4 -19 10 3 6 15 10 26 10 10
0 19 -4 19 -10z m200 -30 c27 -22 32 -32 23 -41 -8 -8 -19 -8 -40 -1 -15 6
-21 11 -13 12 8 0 0 7 -19 15 -28 13 -31 17 -21 30 18 21 30 19 70 -15z m4840
20 c0 -5 -5 -10 -11 -10 -5 0 -7 5 -4 10 3 6 8 10 11 10 2 0 4 -4 4 -10z
m-5180 -20 c0 -5 -11 -10 -25 -10 -14 0 -25 5 -25 10 0 6 11 10 25 10 14 0 25
-4 25 -10z m5580 0 c0 -5 -4 -10 -9 -10 -6 0 -13 5 -16 10 -3 6 1 10 9 10 9 0
16 -4 16 -10z m85 1 c3 -5 1 -12 -5 -16 -5 -3 -10 1 -10 9 0 18 6 21 15 7z
m-489 -16 c4 -8 12 -15 20 -15 17 0 18 -12 2 -28 -17 -17 -86 -15 -104 3 -20
19 -10 35 17 28 14 -4 25 0 31 11 11 20 27 21 34 1z m159 -5 c-3 -5 -11 -10
-16 -10 -6 0 -7 5 -4 10 3 6 11 10 16 10 6 0 7 -4 4 -10z m49 3 c4 -4 21 -6
39 -5 44 3 65 -11 48 -32 -19 -22 -34 -20 -28 4 3 12 0 20 -8 20 -7 0 -24 -9
-38 -20 -31 -24 -56 -28 -37 -5 10 12 10 18 0 30 -10 12 -10 15 2 15 8 0 18
-3 22 -7z m216 -18 c0 -12 -19 -12 -23 0 -4 9 -1 12 9 8 7 -3 14 -7 14 -8z
m-5116 -11 c36 -11 55 -24 63 -41 10 -20 9 -24 -2 -19 -7 2 -30 8 -49 12 -36
6 -46 18 -23 27 6 3 2 6 -11 6 -13 1 -20 -3 -17 -9 4 -6 -10 -9 -33 -7 -45 2
-48 27 -3 27 20 0 23 2 11 10 -24 15 5 13 64 -6z m5655 3 c6 -8 8 -16 6 -19
-3 -3 8 -8 25 -12 27 -5 35 -26 10 -26 -12 0 -70 50 -70 61 0 13 16 11 29 -4z
m-802 -19 c-3 -8 -6 -5 -6 6 -1 11 2 17 5 13 3 -3 4 -12 1 -19z m-1044 6 c7
-8 -3 -34 -13 -34 -5 0 -8 9 -7 20 1 20 8 25 20 14z m1822 -40 c17 -13 18 -16
5 -24 -8 -5 -24 -10 -35 -10 -15 0 -17 2 -6 9 8 5 11 16 8 25 -8 20 2 20 28 0z
m-5415 -14 c17 -11 16 -11 -22 -15 -16 -2 -29 2 -32 11 -6 16 30 19 54 4z
m2960 -10 c0 -5 -9 -10 -20 -10 -11 0 -20 5 -20 10 0 6 9 10 20 10 11 0 20 -4
20 -10z m2552 -53 c35 -24 62 -48 62 -53 -1 -9 -127 -62 -150 -63 -5 -1 -32
19 -60 43 -44 40 -47 46 -34 60 8 8 38 24 65 34 28 11 51 20 52 21 1 1 30 -18
65 -42z m-5309 6 c27 -4 37 -10 33 -20 -3 -8 -1 -11 4 -8 6 3 10 1 10 -5 0 -6
5 -8 10 -5 6 4 8 12 4 18 -3 7 2 3 10 -7 9 -11 16 -24 16 -28 0 -10 -51 1 -64
13 -6 5 -19 9 -31 9 -12 0 -30 6 -41 14 -11 9 -31 12 -49 9 -29 -5 -29 -5 -10
11 12 10 30 14 45 11 14 -3 42 -8 63 -12z m3605 -3 c-14 -22 -17 -23 -37 -11
-19 12 -4 31 25 31 22 0 23 -2 12 -20z m-67 -9 c15 -7 33 -24 40 -38 12 -23
11 -27 -10 -44 -40 -32 -57 -25 -65 27 -8 61 -8 76 2 72 4 -2 19 -10 33 -17z
m797 1 c2 -7 -6 -12 -17 -12 -21 0 -27 11 -14 24 9 9 26 2 31 -12z m798 -74
c50 -39 55 -53 22 -63 -13 -4 -38 -13 -56 -21 -41 -19 -56 -10 -48 28 6 28 35
77 47 78 4 0 19 -10 35 -22z m-1213 -98 c15 0 18 -3 10 -11 -8 -8 -17 -8 -31
0 -10 6 -23 7 -27 3 -4 -4 -3 3 4 15 6 12 12 32 13 45 1 13 3 6 5 -14 3 -31 8
-38 26 -38z m-323 51 c0 -5 3 -23 6 -41 7 -32 6 -32 -17 -20 -13 7 -35 21 -48
31 l-23 19 23 9 c31 12 59 13 59 2z m-2625 -31 c-4 -6 5 -10 20 -10 24 0 26
-2 23 -45 -2 -25 -6 -45 -10 -45 -5 0 -8 5 -8 10 0 6 -4 10 -10 10 -18 0 -11
-18 9 -25 18 -5 36 -33 28 -42 -3 -2 -24 1 -48 7 -24 6 -50 12 -57 13 -7 2
-17 8 -24 15 -9 9 -7 13 5 18 9 3 17 10 17 16 0 5 -10 2 -22 -6 -25 -18 -53
-21 -43 -6 3 6 2 10 -4 10 -5 0 -11 -6 -14 -12 -2 -7 -7 -10 -11 -7 -4 4 28
30 70 58 82 54 89 57 79 41z m4282 -22 c83 -72 80 -64 26 -83 -26 -9 -60 -22
-76 -27 -24 -9 -33 -6 -82 32 -51 39 -72 60 -62 60 2 0 35 11 73 25 38 13 72
24 76 25 4 0 24 -15 45 -32z m-1701 -13 c16 -14 32 -25 37 -25 4 0 7 -4 7 -9
0 -8 -90 -51 -108 -51 -5 0 -2 25 6 55 8 30 18 55 22 55 4 0 20 -11 36 -25z
m1551 -83 l31 -29 -27 -15 c-14 -9 -40 -19 -58 -22 l-32 -7 17 50 c9 28 21 51
27 51 6 0 25 -13 42 -28z m-1486 -14 c0 -18 2 -43 5 -55 6 -35 -34 -29 -80 12
l-40 34 30 12 c16 6 38 15 49 19 32 14 35 12 36 -22z m1759 3 c0 -20 -36 -44
-53 -35 -7 4 -9 4 -5 0 10 -12 -24 -46 -47 -46 -11 1 -33 11 -48 24 l-29 23
74 29 c76 31 108 33 108 5z m-4537 8 c14 0 16 -5 11 -22 -8 -27 -24 -46 -24
-29 0 7 -5 12 -11 12 -5 0 -7 -4 -4 -10 3 -5 1 -10 -5 -10 -7 0 -10 6 -7 14 3
8 -1 20 -9 26 -22 19 -17 33 9 25 12 -4 30 -7 40 -6z m2667 -49 l20 -20 -24 0
c-27 0 -41 14 -31 30 9 14 12 13 35 -10z m1691 -26 l24 -26 -35 -29 c-19 -16
-40 -29 -46 -29 -7 0 -14 -6 -16 -12 -5 -13 -26 -2 -81 45 l-28 23 63 26 c81
33 89 33 119 2z m-142 -96 c37 -32 38 -36 9 -47 -63 -23 -68 -23 -68 -1 0 12
5 30 11 41 8 15 7 24 -3 36 -11 14 -11 15 3 7 9 -5 30 -21 48 -36z m-2369 -48
c0 -5 -7 -10 -15 -10 -8 0 -15 5 -15 10 0 6 7 10 15 10 8 0 15 -4 15 -10z
m2348 -50 c-9 -13 -14 -16 -20 -7 -4 6 -2 15 5 19 21 14 28 9 15 -12z m-2460
-1 c-2 -6 -8 -10 -13 -10 -5 0 -11 4 -13 10 -2 6 4 11 13 11 9 0 15 -5 13 -11z
m-15 -65 c27 -9 20 -21 -20 -35 -34 -11 -38 -10 -55 11 -10 12 -18 26 -18 32
0 9 53 4 93 -8z m221 -45 c-8 -13 30 -11 43 2 9 9 19 9 40 1 15 -6 43 -11 61
-10 39 1 39 1 43 -42 2 -19 11 -38 19 -41 10 -5 4 -10 -20 -18 l-35 -11 33 5
c17 2 32 0 32 -5 0 -6 -6 -10 -12 -10 -9 0 -8 -4 2 -10 12 -8 9 -10 -12 -10
-15 0 -33 7 -41 15 -8 8 -17 12 -20 9 -8 -8 -156 26 -163 37 -3 6 0 16 6 24
10 12 9 15 -9 15 -16 0 -21 6 -21 28 0 16 2 31 5 34 9 9 55 -4 49 -13z m-184
-8 c0 -11 5 -23 10 -26 15 -9 12 -44 -4 -60 -22 -22 -89 -30 -104 -12 -7 8
-10 22 -6 30 9 24 43 32 57 13 13 -16 57 -12 57 6 0 5 -4 7 -9 3 -11 -6 -81
25 -81 37 0 6 47 24 73 27 4 1 7 -8 7 -18z m100 3 c0 -2 -7 -4 -15 -4 -8 0
-15 4 -15 10 0 5 7 7 15 4 8 -4 15 -8 15 -10z m549 0 c3 -3 0 -9 -7 -16 -12
-12 -66 5 -78 24 -6 10 75 1 85 -8z m-1837 -5 c2 -6 23 -12 47 -13 43 -2 44
-3 48 -40 3 -35 2 -37 -19 -30 -31 9 -85 55 -91 77 -5 18 9 25 15 6z m1744 -3
c20 -20 18 -24 -17 -31 -21 -5 -34 -3 -39 6 -21 33 26 54 56 25z m174 -16
c-12 -16 -27 -30 -33 -30 -9 0 -9 -2 0 -8 8 -5 9 -12 2 -22 -8 -13 -10 -13
-18 0 -6 8 -13 11 -18 7 -4 -5 3 -17 17 -27 l25 -19 -38 -16 c-25 -10 -50 -13
-73 -9 -26 5 -34 3 -34 -9 0 -8 -11 -17 -25 -19 -22 -5 -25 -2 -25 25 0 26 3
29 25 25 14 -3 25 -1 25 3 0 5 -11 16 -25 25 -14 9 -25 20 -25 24 0 4 24 13
53 20 28 7 67 21 86 32 19 11 43 17 53 15 10 -3 21 -1 24 4 3 5 10 9 15 9 6 0
1 -13 -11 -30z m-862 -44 c3 -12 -1 -17 -10 -14 -7 3 -15 13 -16 22 -3 12 1
17 10 14 7 -3 15 -13 16 -22z m572 14 c8 -5 12 -11 9 -14 -7 -8 -49 5 -49 15
0 12 21 11 40 -1z m445 1 c19 -8 19 -8 -2 -15 -13 -4 -33 -1 -50 8 l-28 15 30
0 c17 0 39 -4 50 -8z m-765 -36 c0 -8 -4 -15 -10 -15 -5 0 -7 7 -4 15 4 8 8
15 10 15 2 0 4 -7 4 -15z m1115 -102 c4 -25 10 -53 15 -62 18 -34 41 -104 35
-109 -3 -3 -5 0 -5 8 0 10 -3 10 -15 0 -12 -10 -18 -10 -30 0 -16 13 -45 7
-45 -10 0 -5 18 -10 41 -10 53 0 79 -15 79 -45 0 -13 4 -34 9 -47 4 -13 11
-47 15 -75 6 -49 5 -53 -14 -53 -11 0 -20 -4 -20 -10 0 -5 10 -10 21 -10 19 0
21 -4 15 -31 -3 -17 -6 -38 -6 -45 0 -30 -52 -14 -95 29 -41 41 -42 45 -54
138 -13 100 -13 160 -4 267 4 52 8 60 19 51 8 -6 14 -18 14 -25 0 -8 5 -14 10
-14 17 0 11 29 -10 47 -19 17 -27 53 -13 66 13 14 31 -15 38 -60z m171 16 c6
-5 14 -6 17 -3 3 4 18 4 32 0 18 -5 25 -13 25 -30 0 -13 9 -35 21 -50 14 -17
16 -24 6 -20 -8 3 -18 1 -22 -5 -3 -6 2 -11 12 -11 18 0 123 -101 123 -118 0
-16 -30 -22 -49 -10 -10 6 -27 8 -37 4 -16 -6 -16 -9 -4 -16 8 -6 25 -10 37
-10 29 0 36 -13 17 -36 -11 -14 -17 -15 -20 -6 -3 6 -15 12 -27 11 -22 0 -22
0 1 -9 29 -12 30 -50 1 -57 -13 -4 -16 -8 -10 -13 16 -9 2 -40 -15 -33 -8 3
-14 0 -14 -6 0 -6 5 -11 12 -11 7 0 5 -7 -5 -17 -8 -10 -16 -22 -16 -28 -2
-21 -13 -45 -21 -45 -4 0 -11 -11 -14 -25 -7 -29 -38 -33 -79 -12 l-26 14 38
54 c42 58 71 141 71 199 0 34 2 37 25 32 14 -2 25 0 25 6 0 12 -28 24 -40 17
-11 -7 -26 15 -34 48 -4 15 -22 59 -40 97 -33 68 -34 86 -2 55 8 -8 19 -15 24
-15 6 0 19 -12 30 -27 11 -16 24 -24 29 -19 4 4 -2 15 -14 23 -13 9 -23 21
-23 27 0 6 -18 19 -40 29 -22 9 -40 21 -40 27 0 10 27 3 46 -11z m744 -165
c40 -8 49 -24 13 -24 -20 0 -24 -3 -14 -9 10 -7 1 -11 -32 -16 -25 -4 -50 -4
-56 0 -17 10 -13 35 7 36 10 0 12 3 5 6 -26 10 -13 25 17 19 17 -3 44 -9 60
-12z m26 -70 c-3 -9 -6 -25 -6 -36 0 -20 0 -20 -32 1 -41 25 -46 38 -16 44 49
9 60 7 54 -9z m-69 -41 c29 -20 53 -42 53 -48 0 -11 -87 -45 -114 -45 -7 0
-22 9 -34 20 -21 20 -21 22 -6 53 19 36 34 57 42 57 3 0 29 -16 59 -37z m50
-99 c0 -11 -7 -14 -21 -10 -12 3 -28 6 -36 7 -8 0 -4 5 10 9 38 12 47 11 47
-6z m-100 -29 c39 -33 63 -44 63 -27 0 4 -9 13 -21 20 -31 20 -16 26 25 11 40
-14 51 -49 16 -49 -11 0 -19 -4 -17 -9 1 -5 -7 -17 -18 -25 -19 -15 -19 -15 8
-16 25 0 33 -12 28 -43 -1 -4 6 -15 14 -24 35 -34 -15 -58 -53 -25 -12 11 -22
25 -22 33 0 10 -3 10 -12 1 -9 -9 -6 -16 10 -30 12 -11 22 -24 22 -29 0 -5 16
-14 35 -20 29 -9 35 -9 35 3 0 21 24 17 48 -9 21 -22 21 -25 6 -55 -8 -18 -13
-36 -10 -41 4 -5 1 -13 -5 -17 -6 -3 -15 -1 -19 6 -6 10 -41 16 -120 22 -8 0
-19 4 -25 8 -5 4 -31 11 -57 14 -26 4 -49 10 -52 14 -2 4 1 41 8 82 10 70 13
75 36 76 22 1 41 7 90 27 16 7 -64 -1 -93 -10 -14 -4 -17 0 -13 19 3 13 7 43
11 67 10 74 22 78 82 26z m293 -350 c30 -31 32 -35 13 -35 -30 0 -68 33 -60
53 8 22 8 22 47 -18z m-1040 9 c0 -8 -4 -12 -10 -9 -5 3 -10 10 -10 16 0 5 5
9 10 9 6 0 10 -7 10 -16z m18 -84 c0 -16 -4 -30 -9 -30 -5 0 -9 15 -7 34 2 42
15 39 16 -4z m1462 -49 c0 -15 -16 -22 -34 -15 -25 9 -19 24 9 24 14 0 25 -4
25 -9z m-855 -115 c19 -21 22 -33 18 -66 -4 -26 -2 -40 6 -40 7 0 11 -27 11
-80 0 -79 0 -80 -25 -80 -14 0 -25 -4 -25 -10 0 -5 -18 -10 -40 -10 -22 0 -40
5 -40 10 0 6 8 10 17 10 16 0 16 1 1 16 -20 21 -58 10 -58 -17 0 -12 -10 -23
-25 -29 -26 -10 -26 -34 1 -44 20 -8 19 -86 -1 -86 -11 0 -15 -11 -15 -40 l0
-40 -68 0 c-40 0 -73 -5 -80 -12 -9 -9 -12 0 -12 40 l0 52 54 0 54 0 4 39 c2
29 -1 42 -14 50 -23 14 -88 14 -88 0 0 -5 -4 -8 -9 -5 -18 12 -4 83 23 112 14
16 26 33 26 37 0 5 7 7 14 4 10 -4 13 -1 9 9 -3 8 3 25 14 37 11 12 28 35 39
51 35 53 39 58 64 85 14 15 32 31 40 34 28 12 82 -2 105 -27z m-898 -48 c-3
-8 -6 -5 -6 6 -1 11 2 17 5 13 3 -3 4 -12 1 -19z m-31 -65 c-11 -11 -19 6 -11
24 8 17 8 17 12 0 3 -10 2 -21 -1 -24z m994 17 c0 -5 -5 -10 -11 -10 -5 0 -7
5 -4 10 3 6 8 10 11 10 2 0 4 -4 4 -10z m20 -94 c0 -3 -4 -8 -10 -11 -5 -3
-10 -1 -10 4 0 6 5 11 10 11 6 0 10 -2 10 -4z m300 -56 c0 -23 -10 -26 -28 -8
-18 18 -15 28 8 28 13 0 20 -7 20 -20z m-730 -50 c0 -5 -4 -10 -10 -10 -5 0
-10 5 -10 10 0 6 5 10 10 10 6 0 10 -4 10 -10z m410 -5 c0 -11 -11 -15 -40
-15 -29 0 -40 4 -40 15 0 11 11 15 40 15 29 0 40 -4 40 -15z m-776 -56 c16 -5
45 -9 65 -10 27 0 31 -2 17 -8 -18 -7 -18 -8 -2 -14 26 -10 136 -8 136 2 0 5
-8 12 -17 14 -10 2 0 3 22 2 30 -2 43 -8 52 -26 16 -30 9 -36 -24 -18 -20 11
-27 11 -30 2 -3 -9 -21 -11 -61 -7 -31 3 -68 1 -82 -4 -23 -9 -22 -10 18 -13
23 -3 42 -1 42 3 0 5 5 8 10 8 6 0 10 -15 10 -34 0 -19 -4 -38 -10 -41 -5 -3
-10 3 -10 13 0 27 -21 33 -113 37 -78 4 -79 3 -95 -26 -10 -16 -22 -27 -29
-25 -7 3 -10 -1 -7 -8 3 -7 -6 -20 -20 -29 -25 -17 -52 -64 -58 -102 -5 -30
-74 -34 -83 -5 -3 11 -11 18 -16 15 -5 -4 -9 3 -9 14 0 11 -4 22 -10 26 -17
10 3 39 86 123 46 45 86 91 89 102 9 29 54 33 129 9z m443 15 c-3 -3 -12 -4
-19 -1 -8 3 -5 6 6 6 11 1 17 -2 13 -5z m-352 -154 c-3 -5 -13 -10 -21 -10 -8
0 -14 5 -14 10 0 6 9 10 21 10 11 0 17 -4 14 -10z m-495 -100 c0 -5 -4 -10
-10 -10 -5 0 -10 5 -10 10 0 6 5 10 10 10 6 0 10 -4 10 -10z m780 0 c0 -5 -2
-10 -4 -10 -3 0 -8 5 -11 10 -3 6 -1 10 4 10 6 0 11 -4 11 -10z m-1550 -1610
c0 -5 -19 -10 -42 -9 -33 0 -38 2 -23 9 28 12 65 12 65 0z m64 -92 c-15 -7
-28 -7 -40 1 -16 9 -12 10 21 10 35 0 37 -2 19 -11z m-87 -14 c-3 -3 -12 -4
-19 -1 -8 3 -5 6 6 6 11 1 17 -2 13 -5z m-57 -8 c0 -2 -11 -6 -25 -8 -14 -3
-25 -1 -25 3 0 5 11 9 25 9 14 0 25 -2 25 -4z m220 -66 c0 -12 -17 -12 -45 0
-17 7 -15 9 13 9 17 1 32 -3 32 -9z m2 -91 c-15 -6 -30 -5 -40 1 -13 7 -8 9
23 9 35 0 37 -1 17 -10z"/>
<path d="M4946 6053 c-23 -6 -65 -43 -48 -43 6 0 14 5 17 10 3 6 13 10 21 10
9 0 22 7 30 15 16 15 13 16 -20 8z"/>
<path d="M4825 5870 c3 -5 8 -10 11 -10 2 0 4 5 4 10 0 6 -5 10 -11 10 -5 0
-7 -4 -4 -10z"/>
<path d="M2230 5951 c0 -6 5 -13 10 -16 6 -3 10 1 10 9 0 9 -4 16 -10 16 -5 0
-10 -4 -10 -9z"/>
<path d="M2265 5920 c3 -5 8 -10 11 -10 2 0 4 5 4 10 0 6 -5 10 -11 10 -5 0
-7 -4 -4 -10z"/>
<path d="M2530 5870 c0 -5 5 -10 10 -10 6 0 10 5 10 10 0 6 -4 10 -10 10 -5 0
-10 -4 -10 -10z"/>
<path d="M2390 5810 c0 -5 5 -10 10 -10 6 0 10 5 10 10 0 6 -4 10 -10 10 -5 0
-10 -4 -10 -10z"/>
<path d="M871 5844 c0 -11 3 -14 6 -6 3 7 2 16 -1 19 -3 4 -6 -2 -5 -13z"/>
<path d="M3226 5793 c-4 -9 -2 -21 4 -27 7 -7 10 -2 10 17 0 31 -5 34 -14 10z"/>
<path d="M3425 5790 c-3 -5 -1 -10 4 -10 6 0 11 5 11 10 0 6 -2 10 -4 10 -3 0
-8 -4 -11 -10z"/>
<path d="M3315 5734 c-40 -36 -33 -37 18 -1 15 10 35 16 43 13 10 -4 14 -1 12
6 -8 24 -33 18 -73 -18z"/>
<path d="M3500 5630 c0 -5 4 -10 9 -10 6 0 13 5 16 10 3 6 -1 10 -9 10 -9 0
-16 -4 -16 -10z"/>
<path d="M5222 5778 c-16 -16 -16 -58 1 -58 22 0 36 15 39 40 3 27 -20 38 -40
18z"/>
<path d="M1960 5692 c0 -12 19 -26 26 -19 2 2 -2 10 -11 17 -9 8 -15 8 -15 2z"/>
<path d="M1997 5649 c7 -7 15 -10 18 -7 3 3 -2 9 -12 12 -14 6 -15 5 -6 -5z"/>
<path d="M3997 5640 c3 -11 12 -20 21 -20 13 0 12 3 -3 20 -10 11 -19 20 -21
20 -1 0 0 -9 3 -20z"/>
<path d="M4320 5366 c0 -2 7 -7 16 -10 8 -3 12 -2 9 4 -6 10 -25 14 -25 6z"/>
<path d="M4200 5470 c0 -5 5 -10 11 -10 5 0 7 5 4 10 -3 6 -8 10 -11 10 -2 0
-4 -4 -4 -10z"/>
<path d="M5346 5301 c-4 -7 -5 -15 -2 -18 9 -9 19 4 14 18 -4 11 -6 11 -12 0z"/>
<path d="M5658 5263 c7 -3 16 -2 19 1 4 3 -2 6 -13 5 -11 0 -14 -3 -6 -6z"/>
<path d="M5326 4974 c-9 -8 -16 -29 -16 -45 0 -22 5 -29 20 -29 11 0 20 -4 20
-8 0 -5 29 -10 63 -11 80 -2 100 14 65 52 -49 52 -122 72 -152 41z"/>
<path d="M4957 4389 c4 -15 8 -17 19 -8 18 15 18 16 -5 22 -14 3 -17 0 -14
-14z"/>
<path d="M5018 4403 c7 -3 16 -2 19 1 4 3 -2 6 -13 5 -11 0 -14 -3 -6 -6z"/>
<path d="M1930 4210 c0 -5 5 -10 10 -10 6 0 10 5 10 10 0 6 -4 10 -10 10 -5 0
-10 -4 -10 -10z"/>
<path d="M3820 3740 c0 -5 8 -10 18 -10 10 0 23 -5 30 -12 7 -7 12 -9 12 -6 0
4 -7 14 -16 22 -17 18 -44 21 -44 6z"/>
<path d="M3780 3720 c0 -5 5 -10 10 -10 6 0 10 5 10 10 0 6 -4 10 -10 10 -5 0
-10 -4 -10 -10z"/>
<path d="M2470 3689 c0 -5 5 -7 10 -4 6 3 10 8 10 11 0 2 -4 4 -10 4 -5 0 -10
-5 -10 -11z"/>
<path d="M4220 3696 c0 -2 7 -7 16 -10 8 -3 12 -2 9 4 -6 10 -25 14 -25 6z"/>
<path d="M4790 3265 c0 -8 4 -15 10 -15 5 0 7 7 4 15 -4 8 -8 15 -10 15 -2 0
-4 -7 -4 -15z"/>
<path d="M5070 3190 c0 -5 7 -7 15 -4 8 4 15 8 15 10 0 2 -7 4 -15 4 -8 0 -15
-4 -15 -10z"/>
<path d="M5488 2458 c-2 -16 -12 -24 -37 -29 -49 -10 -67 -43 -30 -54 13 -4
27 -1 38 9 10 9 34 16 54 16 36 0 37 1 37 40 0 38 -2 40 -29 40 -23 0 -30 -5
-33 -22z"/>
<path d="M5360 2360 c0 -5 7 -10 15 -10 8 0 15 5 15 10 0 6 -7 10 -15 10 -8 0
-15 -4 -15 -10z"/>
<path d="M4800 2212 c0 -5 18 -12 40 -14 22 -2 40 0 40 4 0 5 -8 8 -17 8 -10
0 -28 3 -40 6 -13 4 -23 2 -23 -4z"/>
<path d="M4800 2170 c0 -13 20 -13 40 0 12 8 9 10 -12 10 -16 0 -28 -4 -28
-10z"/>
<path d="M5484 6358 c-19 -21 -19 -21 1 -14 11 5 28 11 38 13 23 7 22 23 -1
23 -11 0 -27 -10 -38 -22z"/>
<path d="M0 6294 c0 -8 5 -12 10 -9 6 4 8 11 5 16 -9 14 -15 11 -15 -7z"/>
<path d="M188 6259 c-17 -18 -22 -29 -14 -29 13 0 51 48 44 55 -2 2 -15 -10
-30 -26z"/>
<path d="M100 6167 c0 -9 -6 -17 -12 -20 -8 -2 -9 -8 -4 -13 5 -5 11 -4 13 4
3 6 14 12 25 12 11 0 18 5 16 13 -7 18 -38 21 -38 4z"/>
<path d="M145 6141 c-3 -5 -1 -12 5 -16 5 -3 10 1 10 9 0 18 -6 21 -15 7z"/>
<path d="M23 6085 c-8 -22 6 -33 17 -15 13 20 12 30 0 30 -6 0 -13 -7 -17 -15z"/>
<path d="M233 6065 c-9 -25 4 -29 17 -6 7 15 7 21 0 21 -6 0 -13 -7 -17 -15z"/>
<path d="M22 5835 c-12 -14 -22 -31 -22 -38 1 -8 5 -7 13 4 7 8 20 18 30 22
17 6 25 37 9 37 -5 0 -18 -11 -30 -25z"/>
<path d="M309 4519 c-12 -8 -12 -10 0 -18 15 -10 41 -4 41 9 0 13 -26 19 -41
9z"/>
<path d="M495 4460 c3 -5 13 -10 21 -10 8 0 12 5 9 10 -3 6 -13 10 -21 10 -8
0 -12 -4 -9 -10z"/>
<path d="M157 4407 c-8 -22 6 -37 20 -22 10 10 9 16 -1 24 -10 9 -15 8 -19 -2z"/>
<path d="M648 4403 c7 -3 16 -2 19 1 4 3 -2 6 -13 5 -11 0 -14 -3 -6 -6z"/>
<path d="M960 4340 c0 -5 5 -10 10 -10 6 0 10 5 10 10 0 6 -4 10 -10 10 -5 0
-10 -4 -10 -10z"/>
<path d="M160 4272 c0 -4 6 -17 14 -27 11 -15 25 -18 76 -17 53 2 66 -1 77
-18 9 -12 26 -20 44 -20 26 0 28 2 17 20 -12 19 -94 44 -111 33 -4 -2 -14 1
-22 7 -12 10 -15 10 -15 -1 0 -9 -3 -8 -12 3 -14 17 -68 33 -68 20z"/>
<path d="M625 4260 c3 -5 8 -10 11 -10 2 0 4 5 4 10 0 6 -5 10 -11 10 -5 0 -7
-4 -4 -10z"/>
<path d="M678 4243 c7 -3 16 -2 19 1 4 3 -2 6 -13 5 -11 0 -14 -3 -6 -6z"/>
<path d="M459 4199 c-9 -5 -6 -11 14 -20 14 -6 24 -16 21 -20 -3 -5 6 -9 19
-9 14 0 27 6 30 14 7 17 -65 47 -84 35z"/>
<path d="M815 4100 c3 -5 13 -10 21 -10 8 0 12 5 9 10 -3 6 -13 10 -21 10 -8
0 -12 -4 -9 -10z"/>
<path d="M1360 3956 c0 -2 7 -9 15 -16 9 -7 15 -8 15 -2 0 5 -7 12 -15 16 -8
3 -15 4 -15 2z"/>
<path d="M1400 3920 c-9 -6 -10 -10 -3 -10 6 0 15 5 18 10 8 12 4 12 -15 0z"/>
<path d="M1524 3905 c24 -18 39 -20 34 -2 -3 6 -15 13 -29 15 -23 2 -23 2 -5
-13z"/>
<path d="M1710 3855 c7 -8 22 -15 34 -15 20 1 20 2 -4 15 -33 19 -46 19 -30 0z"/>
<path d="M1900 3803 c0 -11 61 -45 68 -38 3 3 -1 12 -9 19 -17 17 -59 30 -59
19z"/>
<path d="M1446 3734 c-5 -14 -4 -15 9 -4 17 14 19 20 6 20 -5 0 -12 -7 -15
-16z"/>
<path d="M560 3669 c0 -5 5 -7 10 -4 6 3 10 8 10 11 0 2 -4 4 -10 4 -5 0 -10
-5 -10 -11z"/>
<path d="M625 3610 c-3 -5 -1 -10 4 -10 6 0 11 5 11 10 0 6 -2 10 -4 10 -3 0
-8 -4 -11 -10z"/>
<path d="M4556 3585 c3 -8 -8 -15 -31 -19 -20 -4 -33 -11 -29 -17 4 -6 11 -6
20 2 8 6 32 11 55 11 45 -1 50 17 7 29 -20 5 -25 3 -22 -6z"/>
<path d="M3807 3533 c-4 -6 -19 -14 -34 -18 -29 -7 -63 -32 -63 -46 0 -4 8
-10 18 -12 13 -4 12 -5 -5 -6 -12 0 -24 -5 -28 -10 -6 -10 31 -87 46 -97 5 -3
7 -10 4 -15 -4 -5 0 -9 8 -9 19 0 62 -38 53 -47 -4 -4 -16 -2 -27 5 -19 12
-19 11 -9 -8 6 -11 15 -20 19 -20 5 0 8 -7 7 -16 0 -9 5 -19 12 -21 8 -3 12 6
12 29 0 39 15 58 46 58 13 0 25 3 28 8 7 12 -17 38 -42 46 -37 12 -25 26 22
26 31 0 46 5 50 16 10 25 7 32 -11 37 -17 4 -17 5 0 6 9 0 17 6 17 11 0 6 9
10 20 10 10 0 24 8 29 18 9 14 12 14 19 4 7 -11 10 -10 16 3 9 24 8 28 -9 21
-8 -3 -15 -1 -15 3 0 25 -102 37 -124 16 -26 -26 -20 -55 10 -55 14 0 23 -4
19 -10 -3 -5 -16 -10 -28 -10 -18 0 -20 -2 -7 -11 13 -9 13 -10 -2 -6 -9 3
-26 -3 -39 -14 -28 -24 -29 -24 -29 7 0 23 3 25 25 20 14 -4 25 -2 25 4 0 5
-10 10 -22 11 l-23 0 23 9 c25 11 28 28 9 55 -9 11 -16 14 -20 8z m112 -25
c11 -11 12 -10 6 0 -6 11 -3 12 14 2 30 -15 16 -31 -25 -28 -31 2 -43 15 -27
31 9 10 17 9 32 -5z m-99 -7 c0 -5 -13 -11 -30 -13 -32 -5 -42 7 -12 15 29 8
42 7 42 -2z m-50 -81 c0 -5 -10 -10 -22 -9 -22 0 -22 1 -3 9 11 5 21 9 23 9 1
1 2 -3 2 -9z m130 -15 c-13 -16 -55 -20 -64 -6 -9 14 5 21 42 21 29 0 33 -2
22 -15z m-130 -24 c0 -5 -9 -7 -20 -4 -11 3 -20 7 -20 9 0 2 9 4 20 4 11 0 20
-4 20 -9z m90 -49 c13 -13 11 -14 -17 -9 -20 4 -33 2 -33 -4 0 -6 -5 -7 -11
-3 -8 4 -7 9 2 15 12 8 11 11 -1 19 -11 8 -7 9 15 4 17 -4 37 -13 45 -22z"/>
<path d="M4026 3461 c-9 -10 -31 -22 -49 -25 -29 -6 -30 -8 -14 -20 31 -24 13
-54 -37 -58 -30 -3 -34 -13 -9 -27 14 -8 15 -13 5 -35 -7 -15 -20 -26 -31 -26
-11 0 -27 -10 -35 -22 -20 -28 -12 -37 12 -15 24 22 32 22 88 -8 52 -28 74
-22 74 20 0 24 -17 35 -56 35 -14 0 -24 6 -24 14 0 8 -3 21 -6 30 -4 10 5 20
26 31 28 14 31 21 26 45 -5 25 -2 29 24 35 15 3 31 13 34 20 8 23 -10 26 -28
6z m-56 -201 c15 -11 30 -17 34 -15 3 3 2 0 -2 -6 -11 -12 -84 19 -76 33 7 12
13 10 44 -12z"/>
<path d="M720 3320 c0 -22 5 -40 10 -40 6 0 10 18 10 40 0 22 -4 40 -10 40 -5
0 -10 -18 -10 -40z"/>
<path d="M980 3269 c0 -5 5 -7 10 -4 6 3 10 8 10 11 0 2 -4 4 -10 4 -5 0 -10
-5 -10 -11z"/>
<path d="M890 3185 c-14 -16 -10 -18 14 -9 9 3 16 10 16 15 0 14 -16 11 -30
-6z"/>
<path d="M951 3114 c0 -11 3 -14 6 -6 3 7 2 16 -1 19 -3 4 -6 -2 -5 -13z"/>
<path d="M3841 3101 c-9 -6 -11 -18 -7 -35 7 -27 20 -34 31 -16 7 12 55 14 55
2 0 -4 -13 -15 -29 -25 -25 -15 -30 -23 -29 -57 0 -22 5 -43 10 -46 5 -3 2
-16 -6 -30 -9 -13 -16 -39 -16 -59 0 -20 -7 -47 -16 -61 -11 -16 -14 -28 -7
-35 22 -22 116 155 127 239 12 90 -53 161 -113 123z"/>
<path d="M731 3031 c-7 -5 -12 -14 -10 -20 2 -6 10 -2 17 9 14 22 13 23 -7 11z"/>
<path d="M2 2983 c2 -9 14 -20 28 -24 14 -4 70 -23 125 -43 101 -36 145 -44
145 -26 0 6 -6 10 -14 10 -7 0 -19 6 -26 14 -6 8 -18 12 -26 9 -8 -3 -14 0
-14 6 0 6 -14 11 -31 11 -16 0 -28 4 -24 9 3 6 -5 9 -17 9 -62 -4 -76 1 -72
25 2 12 2 16 -2 10 -7 -15 -40 -17 -49 -3 -10 16 -27 11 -23 -7z"/>
<path d="M260 2956 c0 -9 30 -14 35 -6 4 6 -3 10 -14 10 -12 0 -21 -2 -21 -4z"/>
<path d="M1370 2785 c0 -8 2 -15 4 -15 2 0 6 7 10 15 3 8 1 15 -4 15 -6 0 -10
-7 -10 -15z"/>
<path d="M510 2745 c-7 -9 -11 -18 -8 -20 3 -3 11 1 18 10 7 9 11 18 8 20 -3
3 -11 -1 -18 -10z"/>
<path d="M711 2731 c8 -11 24 -21 36 -21 13 0 46 -9 75 -20 29 -11 62 -20 73
-20 12 0 25 -4 30 -9 6 -4 24 -13 40 -19 17 -6 66 -24 110 -41 44 -17 108 -34
143 -37 l62 -7 0 42 0 41 -40 0 c-37 0 -45 -7 -41 -32 2 -11 -47 -10 -54 1 -3
6 2 14 11 19 13 7 10 9 -14 8 -16 0 -28 -5 -25 -10 3 -4 -3 -6 -13 -3 -11 4
-32 9 -49 12 -38 9 -115 34 -137 46 -10 5 -25 9 -33 9 -8 0 -34 9 -58 19 -23
11 -54 22 -69 25 -14 3 -34 9 -43 12 -15 6 -15 4 -4 -15z"/>
<path d="M466 2705 c-3 -8 -1 -15 4 -15 6 0 10 7 10 15 0 8 -2 15 -4 15 -2 0
-6 -7 -10 -15z"/>
<path d="M357 2594 c-77 -79 -110 -129 -41 -63 94 89 125 122 122 131 -2 6
-38 -25 -81 -68z"/>
<path d="M1298 2548 c-8 -22 3 -38 27 -38 26 0 39 22 22 39 -15 15 -44 14 -49
-1z"/>
<path d="M250 2480 c-8 -5 -12 -12 -9 -15 4 -3 12 1 19 10 14 17 11 19 -10 5z"/>
<path d="M207 2443 c-4 -3 -7 -11 -7 -17 0 -6 5 -5 12 2 6 6 9 14 7 17 -3 3
-9 2 -12 -2z"/>
<path d="M125 2361 c-16 -20 -49 -52 -72 -69 -41 -31 -54 -52 -34 -52 5 0 34
27 64 60 29 33 59 60 65 60 7 0 12 9 12 20 0 26 0 26 -35 -19z"/>
<path d="M1400 1783 c1 -16 5 -46 10 -68 5 -22 14 -62 19 -89 6 -27 16 -55 22
-63 7 -7 19 -27 28 -45 10 -17 36 -45 60 -62 35 -25 54 -31 110 -34 63 -4 73
-1 137 33 38 21 79 47 92 58 21 20 22 20 23 1 1 -10 0 -30 -1 -44 -1 -14 -4
-62 -7 -107 -4 -71 -2 -83 11 -83 13 0 16 -13 17 -67 1 -38 3 -79 5 -93 5 -42
-5 -74 -34 -105 -15 -17 -34 -43 -42 -60 -8 -16 -32 -52 -52 -79 -21 -28 -38
-56 -38 -63 0 -7 -4 -13 -8 -13 -5 0 -25 -24 -44 -52 -47 -71 -51 -78 -39 -78
6 0 11 5 11 10 0 6 11 22 24 35 14 14 59 76 101 137 83 124 122 175 128 168 3
-3 8 -75 12 -160 4 -85 8 -157 10 -159 8 -8 26 12 41 47 8 20 20 44 25 52 37
62 43 80 45 151 2 51 9 88 22 115 15 30 19 54 17 104 -6 118 -17 215 -27 234
-7 12 -7 16 0 12 13 -8 27 12 36 46 4 19 0 40 -14 65 -11 21 -20 44 -20 51 0
9 -7 11 -20 7 -12 -4 -27 -1 -35 5 -8 6 -19 9 -24 6 -6 -4 -22 -4 -36 0 -27 7
-34 31 -10 40 20 8 9 24 -17 24 -11 0 -22 -8 -25 -20 -8 -30 -31 -25 -175 31
-71 28 -151 57 -176 64 -77 22 -116 39 -130 58 -19 25 -32 21 -32 -10z"/>
<path d="M1992 1648 c3 -7 13 -15 22 -16 12 -3 17 1 14 10 -3 7 -13 15 -22 16
-12 3 -17 -1 -14 -10z"/>
<path d="M2090 1590 c0 -5 5 -10 10 -10 6 0 10 5 10 10 0 6 -4 10 -10 10 -5 0
-10 -4 -10 -10z"/>
<path d="M2896 724 c-17 -12 -18 -14 -3 -20 10 -3 17 -12 17 -19 0 -8 11 -27
25 -43 14 -17 25 -34 25 -40 0 -5 7 -12 15 -16 8 -3 15 -12 15 -19 0 -8 8 -21
18 -30 17 -15 18 -14 17 17 -1 17 -5 38 -9 44 -5 8 6 25 28 44 20 17 36 39 36
49 0 19 -49 32 -86 23 -13 -4 -30 -2 -37 3 -23 19 -43 21 -61 7z"/>
<path d="M2115 654 c-11 -8 -25 -12 -32 -10 -7 3 -12 2 -11 -2 3 -16 -23 -63
-32 -57 -5 3 -15 -3 -22 -15 -7 -11 -18 -20 -25 -20 -7 0 -13 -4 -13 -10 0 -5
9 -10 21 -10 16 0 19 -4 14 -20 -3 -11 -3 -20 2 -20 16 0 14 -57 -2 -64 -18
-7 -20 -56 -2 -56 21 0 40 17 33 29 -10 15 36 31 65 24 24 -6 24 -6 5 15 -17
20 -17 22 -2 28 20 8 21 24 1 24 -8 0 -15 5 -15 11 0 7 12 9 35 5 38 -7 47 6
18 23 -16 9 -16 10 3 11 11 0 23 2 26 5 8 9 -14 105 -23 99 -5 -3 -6 2 -3 10
8 20 -14 20 -41 0z"/>
<path d="M1641 643 c-7 -8 -11 -16 -8 -19 2 -2 10 2 17 11 17 20 9 27 -9 8z"/>
<path d="M1600 585 c0 -7 -6 -18 -13 -22 -7 -4 -33 -37 -57 -73 -24 -36 -54
-80 -67 -99 -13 -19 -23 -38 -23 -44 0 -13 58 60 77 98 9 17 19 32 22 35 9 7
81 109 81 115 0 3 -4 5 -10 5 -5 0 -10 -7 -10 -15z"/>
<path d="M1980 500 c0 -5 5 -10 10 -10 6 0 10 5 10 10 0 6 -4 10 -10 10 -5 0
-10 -4 -10 -10z"/>
<path d="M1975 440 c-3 -5 1 -10 9 -10 9 0 16 5 16 10 0 6 -4 10 -9 10 -6 0
-13 -4 -16 -10z"/>
<path d="M1870 410 c0 -5 5 -10 11 -10 5 0 7 5 4 10 -3 6 -8 10 -11 10 -2 0
-4 -4 -4 -10z"/>
<path d="M1903 397 c-8 -16 -9 -29 -3 -32 12 -8 23 17 18 41 -2 14 -6 12 -15
-9z"/>
<path d="M1950 410 c0 -5 5 -10 10 -10 6 0 10 5 10 10 0 6 -4 10 -10 10 -5 0
-10 -4 -10 -10z"/>
<path d="M1390 278 c-12 -22 -12 -22 6 -6 10 10 15 20 12 24 -4 3 -12 -5 -18
-18z"/>
<path d="M1896 198 c32 -64 30 -62 37 -44 4 9 -5 28 -18 45 -14 16 -25 34 -25
40 0 6 -5 11 -10 11 -6 0 2 -24 16 -52z"/>
<path d="M1344 218 c-4 -7 -14 -23 -22 -35 -8 -13 -12 -23 -9 -23 9 0 50 61
44 66 -3 3 -8 -1 -13 -8z"/>
<path d="M1275 119 c-4 -6 -5 -12 -2 -15 2 -3 7 2 10 11 7 17 1 20 -8 4z"/>
<path d="M1941 114 c0 -11 3 -14 6 -6 3 7 2 16 -1 19 -3 4 -6 -2 -5 -13z"/>
<path d="M2196 115 c4 -8 12 -15 20 -15 8 0 14 -4 14 -10 0 -5 5 -10 10 -10
15 0 12 16 -6 34 -20 20 -45 21 -38 1z"/>
<path d="M1231 53 c-12 -14 -19 -29 -15 -32 3 -3 10 2 15 11 5 9 16 24 25 33
8 8 11 15 5 15 -5 0 -19 -12 -30 -27z"/>
<path d="M2213 52 c-13 -2 -23 -6 -23 -10 0 -16 65 -42 103 -42 l41 0 -20 20
c-23 23 -68 37 -101 32z"/>
<path d="M1880 41 c0 -21 13 -41 26 -41 21 0 17 28 -6 40 -12 6 -20 7 -20 1z"/>
</g>
</svg>
